<svg xmlns="http://www.w3.org/2000/svg" width="64" height="64" viewBox="0 0 64 64" fill="none">
  <circle cx="32" cy="32" r="30" fill="#0F1722" />
  <circle cx="32" cy="32" r="28.5" stroke="#2F3C4E" stroke-opacity="0.92" />
  <path
    fill="#F4F7FB"
    fill-rule="evenodd"
    d="M24 17.5H35.7C42.3 17.5 45.9 20.55 45.9 25.5C45.9 28.6 44.34 30.86 41.52 32.02C44.9 33.1 46.8 35.7 46.8 39.4C46.8 45 42.7 48.5 35.5 48.5H24V17.5ZM30.65 23.1V29.7H35.05C37.47 29.7 38.95 28.48 38.95 26.37C38.95 24.3 37.47 23.1 35.05 23.1H30.65ZM30.65 34.55V42.78H35.62C38.47 42.78 40.12 41.42 40.12 38.82C40.12 35.98 38.44 34.55 35.5 34.55H30.65Z"
    clip-rule="evenodd"
  />
  <circle cx="44.85" cy="44.85" r="3.1" fill="#C6A56B" />
</svg>
