<svg xmlns="http://www.w3.org/2000/svg" width="64" height="64" viewBox="0 0 64 64" fill="none">
  <rect width="64" height="64" rx="18" fill="#111827" />
  <rect x="2.5" y="2.5" width="59" height="59" rx="15.5" stroke="#334155" stroke-opacity="0.65" />
  <path
    fill="#FFFFFF"
    d="M22 14C20.343 14 19 15.343 19 17V47C19 48.657 20.343 50 22 50H38.55C46.387 50 51 46.105 51 39.45C51 35.203 48.987 32.21 45.101 30.56C47.93 28.949 49.55 26.144 49.55 22.6C49.55 17.256 45.292 14 38.3 14H22ZM28.55 21.45H37.1C40.234 21.45 42.1 22.919 42.1 25.55C42.1 28.306 40.22 29.85 36.85 29.85H28.55V21.45ZM28.55 36.45H38.1C41.788 36.45 43.95 38.083 43.95 40.95C43.95 43.881 41.728 45.55 37.8 45.55H28.55V36.45Z"
  />
  <path
    d="M40.7 40.9L46.6 46.75"
    stroke="#2563EB"
    stroke-width="3.5"
    stroke-linecap="round"
  />
</svg>
