<svg xmlns="http://www.w3.org/2000/svg" width="64" height="64" viewBox="0 0 64 64" fill="none">
  <rect x="6" y="6" width="52" height="52" rx="16" fill="#1D1712" />
  <rect x="7" y="7" width="50" height="50" rx="15" stroke="#3B2E24" />
  <path
    d="M23 17.5H35.2C41.9 17.5 45.6 20.7 45.6 25.6C45.6 28.7 44 30.9 41.2 32.1C44.6 33.2 46.5 35.8 46.5 39.5C46.5 45.1 42.3 48.5 35 48.5H23V17.5ZM29.9 23.1V29.7H34.6C37.1 29.7 38.6 28.5 38.6 26.3C38.6 24.3 37.1 23.1 34.6 23.1H29.9ZM29.9 34.5V42.8H35.2C38.1 42.8 39.8 41.4 39.8 38.8C39.8 36 38.1 34.5 35 34.5H29.9Z"
    fill="#F6EFE4"
  />
  <circle cx="45.5" cy="45.5" r="3.25" fill="#C86F42" />
</svg>
